<svg width="54" height="59" viewBox="0 0 54 59" fill="none" xmlns="http://www.w3.org/2000/svg">
<path d="M53.2775 43.221C51.6568 40.432 49.2487 32.5661 49.2487 22.3349C49.2487 16.4113 46.8955 10.7304 42.7069 6.54175C38.5183 2.35314 32.8373 0 26.9137 0C20.9901 0 15.3092 2.35314 11.1206 6.54175C6.93194 10.7304 4.5788 16.4113 4.5788 22.3349C4.5788 32.5689 2.16777 40.432 0.547058 43.221C0.19146 43.8299 0.00277118 44.5218 3.02922e-05 45.227C-0.0027106 45.9321 0.180594 46.6255 0.531447 47.2372C0.882301 47.8489 1.38829 48.3572 1.99835 48.7108C2.60841 49.0644 3.30096 49.2509 4.00611 49.2514H16.1701C16.5874 51.7983 17.8964 54.114 19.8633 55.7849C21.8303 57.4558 24.3271 58.3732 26.908 58.3732C29.4889 58.3732 31.9857 57.4558 33.9527 55.7849C35.9197 54.114 37.2287 51.7983 37.6459 49.2514H49.8214C50.526 49.2499 51.2178 49.0627 51.8271 48.7087C52.4364 48.3546 52.9415 47.8462 53.2917 47.2347C53.6419 46.6232 53.8247 45.9302 53.8217 45.2255C53.8187 44.5209 53.63 43.8295 53.2747 43.221H53.2775ZM26.9137 54.9783C25.2383 54.9778 23.6121 54.4122 22.298 53.3729C20.9839 52.3337 20.0587 50.8816 19.6721 49.2514H34.1554C33.7688 50.8816 32.8436 52.3337 31.5295 53.3729C30.2154 54.4122 28.5891 54.9778 26.9137 54.9783ZM50.311 45.5289C50.2638 45.6166 50.1935 45.6897 50.1077 45.7402C50.0218 45.7907 49.9238 45.8166 49.8242 45.8152H4.00611C3.90653 45.8166 3.80849 45.7907 3.72265 45.7402C3.63682 45.6897 3.56648 45.6166 3.51932 45.5289C3.46906 45.4418 3.4426 45.3431 3.4426 45.2426C3.4426 45.142 3.46906 45.0433 3.51932 44.9562C5.68696 41.2337 8.01494 32.5546 8.01494 22.3349C8.01494 17.3227 10.0061 12.5157 13.5503 8.97147C17.0945 5.42726 21.9015 3.43614 26.9137 3.43614C31.926 3.43614 36.733 5.42726 40.2772 8.97147C43.8214 12.5157 45.8125 17.3227 45.8125 22.3349C45.8125 32.5517 48.1434 41.2194 50.311 44.9562C50.3613 45.0433 50.3877 45.142 50.3877 45.2426C50.3877 45.3431 50.3613 45.4418 50.311 45.5289Z" fill="white"/>
</svg>
