<svg width="56" height="56" viewBox="0 0 56 56" fill="none" xmlns="http://www.w3.org/2000/svg">
<g clip-path="url(#clip0_182_244)">
<path d="M15.75 35H22.75V35.875C22.75 36.3391 22.9344 36.7842 23.2626 37.1124C23.5908 37.4406 24.0359 37.625 24.5 37.625H31.5C31.9641 37.625 32.4092 37.4406 32.7374 37.1124C33.0656 36.7842 33.25 36.3391 33.25 35.875V35H40.25C40.25 41.7725 34.7725 47.25 28 47.25C21.2275 47.25 15.75 41.7725 15.75 35ZM18.375 19.25C17.2147 19.25 16.1019 19.7109 15.2814 20.5314C14.4609 21.3519 14 22.4647 14 23.625C14 24.7853 14.4609 25.8981 15.2814 26.7186C16.1019 27.5391 17.2147 28 18.375 28C19.5353 28 20.6481 27.5391 21.4686 26.7186C22.2891 25.8981 22.75 24.7853 22.75 23.625C22.75 22.4647 22.2891 21.3519 21.4686 20.5314C20.6481 19.7109 19.5353 19.25 18.375 19.25ZM37.625 19.25C36.4647 19.25 35.3519 19.7109 34.5314 20.5314C33.7109 21.3519 33.25 22.4647 33.25 23.625C33.25 24.7853 33.7109 25.8981 34.5314 26.7186C35.3519 27.5391 36.4647 28 37.625 28C38.7853 28 39.8981 27.5391 40.7186 26.7186C41.5391 25.8981 42 24.7853 42 23.625C42 22.4647 41.5391 21.3519 40.7186 20.5314C39.8981 19.7109 38.7853 19.25 37.625 19.25Z" fill="black"/>
<path d="M2.4955 21H1.75C1.28587 21 0.840752 21.1844 0.512563 21.5126C0.184375 21.8408 0 22.2859 0 22.75C0 23.2141 0.184375 23.6592 0.512563 23.9874C0.840752 24.3156 1.28587 24.5 1.75 24.5H1.9285C1.80855 25.6622 1.74897 26.8299 1.75 27.9982C1.75 35.105 3.8955 41.6832 8.33525 46.5062C12.7977 51.352 19.4162 54.2465 27.9982 54.2465C36.5802 54.2465 43.1987 51.352 47.6595 46.5062C52.0992 41.685 54.2465 35.105 54.2465 27.9982C54.2465 26.8152 54.187 25.648 54.0663 24.5H54.25C54.7141 24.5 55.1592 24.3156 55.4874 23.9874C55.8156 23.6592 56 23.2141 56 22.75C56 22.2859 55.8156 21.8408 55.4874 21.5126C55.1592 21.1844 54.7141 21 54.25 21H53.501C52.528 16.632 50.596 12.677 47.6595 9.49025C43.197 4.6445 36.5802 1.75 28 1.75C19.4162 1.75 12.7977 4.6445 8.33525 9.49025C5.4005 12.6752 3.4685 16.632 2.4955 21ZM6.0935 21C6.99475 17.472 8.6135 14.357 10.9113 11.8615C14.6125 7.84 20.244 5.25 27.9982 5.25C35.7507 5.25 41.3823 7.84 45.0853 11.8615C47.3848 14.357 49.0018 17.472 49.903 21H48.6377C48.0657 18.9843 46.8518 17.2102 45.1801 15.9469C43.5084 14.6836 41.4703 14.0001 39.375 14.0001C37.2797 14.0001 35.2416 14.6836 33.5699 15.9469C31.8982 17.2102 30.6843 18.9843 30.1123 21H25.8878C25.3157 18.9843 24.1018 17.2102 22.4301 15.9469C20.7584 14.6836 18.7203 14.0001 16.625 14.0001C14.5297 14.0001 12.4916 14.6836 10.8199 15.9469C9.14822 17.2102 7.93427 18.9843 7.36225 21H6.0935ZM50.547 24.5C50.68 25.6375 50.7465 26.8047 50.7465 27.9982C50.7465 34.4207 48.811 40.0907 45.0853 44.135C41.3823 48.1565 35.7525 50.7465 27.9982 50.7465C20.2457 50.7465 14.6143 48.1565 10.9113 44.135C7.18375 40.0925 5.25 34.4225 5.25 28C5.25 26.8065 5.3165 25.6375 5.4495 24.5017H7.0385C7.25329 26.896 8.3562 29.1231 10.1303 30.7452C11.9044 32.3672 14.2212 33.2667 16.625 33.2667C19.0288 33.2667 21.3456 32.3672 23.1197 30.7452C24.8938 29.1231 25.9967 26.896 26.2115 24.5017H29.7885C30.0033 26.896 31.1062 29.1231 32.8803 30.7452C34.6544 32.3672 36.9712 33.2667 39.375 33.2667C41.7788 33.2667 44.0956 32.3672 45.8697 30.7452C47.6438 29.1231 48.7467 26.896 48.9615 24.5017H50.547V24.5ZM8.75 23.625C8.75 22.5908 8.95369 21.5668 9.34945 20.6114C9.7452 19.6559 10.3253 18.7878 11.0565 18.0565C11.7878 17.3253 12.6559 16.7452 13.6114 16.3494C14.5668 15.9537 15.5908 15.75 16.625 15.75C17.6592 15.75 18.6832 15.9537 19.6386 16.3494C20.5941 16.7452 21.4622 17.3253 22.1935 18.0565C22.9247 18.7878 23.5048 19.6559 23.9006 20.6114C24.2963 21.5668 24.5 22.5908 24.5 23.625C24.5 25.7136 23.6703 27.7166 22.1935 29.1935C20.7166 30.6703 18.7136 31.5 16.625 31.5C14.5364 31.5 12.5334 30.6703 11.0565 29.1935C9.57969 27.7166 8.75 25.7136 8.75 23.625ZM31.5122 23.625C31.5122 21.5397 32.3406 19.5397 33.8152 18.0652C35.2897 16.5906 37.2897 15.7622 39.375 15.7622C41.4603 15.7622 43.4603 16.5906 44.9348 18.0652C46.4094 19.5397 47.2378 21.5397 47.2378 23.625C47.2378 25.7103 46.4094 27.7103 44.9348 29.1848C43.4603 30.6594 41.4603 31.4877 39.375 31.4877C37.2897 31.4877 35.2897 30.6594 33.8152 29.1848C32.3406 27.7103 31.5122 25.7103 31.5122 23.625Z" fill="black"/>
</g>
<defs>
<clipPath id="clip0_182_244">
<rect width="56" height="56" fill="white"/>
</clipPath>
</defs>
</svg>
