<svg width="68" height="68" viewBox="0 0 68 68" fill="none" xmlns="http://www.w3.org/2000/svg">
<path d="M39.6668 28.0526V23.2359C41.2252 22.5748 42.8194 22.079 44.4495 21.7484C46.0796 21.4179 47.7909 21.2526 49.5835 21.2526C50.8113 21.2526 52.0154 21.347 53.196 21.5359C54.3765 21.7248 55.5335 21.9609 56.6668 22.2443V26.7776C55.5335 26.3526 54.3879 26.0334 53.23 25.8199C52.0721 25.6065 50.8566 25.5007 49.5835 25.5026C47.7891 25.5026 46.0654 25.7274 44.4127 26.1769C42.7599 26.6265 41.1779 27.2517 39.6668 28.0526ZM39.6668 43.6359V38.8193C41.2252 38.1582 42.8194 37.6623 44.4495 37.3318C46.0796 37.0012 47.7909 36.8359 49.5835 36.8359C50.8113 36.8359 52.0154 36.9304 53.196 37.1193C54.3765 37.3082 55.5335 37.5443 56.6668 37.8276V42.3609C55.5335 41.9359 54.3879 41.6167 53.23 41.4033C52.0721 41.1898 50.8566 41.084 49.5835 41.0859C47.7891 41.0859 46.0654 41.2984 44.4127 41.7234C42.7599 42.1484 41.1779 42.7859 39.6668 43.6359ZM39.6668 35.8443V31.0276C41.2252 30.3665 42.8194 29.8707 44.4495 29.5401C46.0796 29.2095 47.7909 29.0443 49.5835 29.0443C50.8113 29.0443 52.0154 29.1387 53.196 29.3276C54.3765 29.5165 55.5335 29.7526 56.6668 30.0359V34.5693C55.5335 34.1443 54.3879 33.825 53.23 33.6116C52.0721 33.3982 50.8566 33.2924 49.5835 33.2943C47.7891 33.2943 46.0654 33.519 44.4127 33.9686C42.7599 34.4182 41.1779 35.0434 39.6668 35.8443ZM18.4168 45.3359C20.6363 45.3359 22.7972 45.5843 24.8995 46.0811C27.0018 46.5779 29.0909 47.3212 31.1668 48.3109V20.4026C29.2307 19.2693 27.1766 18.4193 25.0043 17.8526C22.8321 17.2859 20.6363 17.0026 18.4168 17.0026C16.7168 17.0026 15.0282 17.1679 13.3508 17.4984C11.6735 17.829 10.0566 18.3248 8.50016 18.9859V47.0359C10.1529 46.4693 11.7944 46.0443 13.4245 45.7609C15.0546 45.4776 16.7187 45.3359 18.4168 45.3359ZM36.8335 48.3109C38.9113 47.3193 41.0004 46.575 43.1008 46.0783C45.2013 45.5815 47.3622 45.334 49.5835 45.3359C51.2835 45.3359 52.9486 45.4776 54.5787 45.7609C56.2088 46.0443 57.8493 46.4693 59.5002 47.0359V18.9859C57.9418 18.3248 56.324 17.829 54.6467 17.4984C52.9693 17.1679 51.2816 17.0026 49.5835 17.0026C47.3641 17.0026 45.1682 17.2859 42.996 17.8526C40.8238 18.4193 38.7696 19.2693 36.8335 20.4026V48.3109ZM34.0002 56.6693C31.7335 54.8748 29.2779 53.4818 26.6335 52.4901C23.989 51.4984 21.2502 51.0026 18.4168 51.0026C15.9141 51.0026 13.2932 51.4748 10.5543 52.4193C7.81544 53.3637 5.24183 54.8276 2.8335 56.8109V15.7276C4.91127 14.3109 7.3555 13.2248 10.1662 12.4693C12.9768 11.7137 15.7271 11.3359 18.4168 11.3359C21.1557 11.3359 23.8361 11.6901 26.4578 12.3984C29.0796 13.1068 31.5937 14.1693 34.0002 15.5859C36.4085 14.1693 38.9236 13.1068 41.5453 12.3984C44.1671 11.6901 46.8465 11.3359 49.5835 11.3359C52.2752 11.3359 55.0263 11.7137 57.837 12.4693C60.6477 13.2248 63.0909 14.3109 65.1668 15.7276V56.8109C62.8057 54.8276 60.2434 53.3637 57.48 52.4193C54.7166 51.4748 52.0844 51.0026 49.5835 51.0026C46.7502 51.0026 44.0113 51.4984 41.3668 52.4901C38.7224 53.4818 36.2668 54.8748 34.0002 56.6693Z" fill="black"/>
</svg>
