<svg width="16" height="16" viewBox="0 0 16 16" fill="none" xmlns="http://www.w3.org/2000/svg">
<path d="M8 0.888889L6.14222 2.74667L8 4.60444M1.12889 0L0 1.12889L4.20444 5.33333H0V10.6667H3.55556L8 15.1111V9.12889L11.7778 12.9156C11.1822 13.3689 10.5156 13.7422 9.77778 13.9556V15.7956C11.0044 15.5111 12.1156 14.9511 13.0489 14.1867L14.8711 16L16 14.8711L8 6.87111M14.2222 8C14.2222 8.83556 14.0444 9.61778 13.7422 10.3467L15.0844 11.6889C15.6843 10.5517 15.9985 9.28569 16 8C16 4.19556 13.3333 1.01333 9.77778 0.204444V2.03556C12.3467 2.8 14.2222 5.18222 14.2222 8ZM12 8C12 6.42667 11.1111 5.07556 9.77778 4.41778V6.38222L11.9556 8.56C12 8.38222 12 8.18667 12 8Z" fill="black"/>
</svg>
