<svg width="28" height="29" viewBox="0 0 28 29" fill="none" xmlns="http://www.w3.org/2000/svg">
<path d="M12.04 20.8302L21.91 11.1795L19.95 9.26309L12.04 16.9973L8.05 13.096L6.09 15.0124L12.04 20.8302ZM14 28.2222C12.0633 28.2222 10.2433 27.8626 8.54 27.1435C6.83667 26.4244 5.355 25.4493 4.095 24.2182C2.835 22.9862 1.83773 21.5375 1.1032 19.872C0.368667 18.2065 0.000933333 16.4269 0 14.5333C0 12.6397 0.367734 10.8601 1.1032 9.19464C1.83867 7.52916 2.83593 6.08042 4.095 4.84842C5.355 3.61642 6.83667 2.64132 8.54 1.92311C10.2433 1.2049 12.0633 0.845334 14 0.844421C15.9367 0.844421 17.7567 1.20398 19.46 1.92311C21.1633 2.64223 22.645 3.61733 23.905 4.84842C25.165 6.08042 26.1627 7.52916 26.8982 9.19464C27.6337 10.8601 28.0009 12.6397 28 14.5333C28 16.4269 27.6323 18.2065 26.8968 19.872C26.1613 21.5375 25.1641 22.9862 23.905 24.2182C22.645 25.4502 21.1633 26.4258 19.46 27.1449C17.7567 27.864 15.9367 28.2231 14 28.2222Z" fill="#00CC99"/>
</svg>
