<svg width="68" height="67" viewBox="0 0 68 67" fill="none" xmlns="http://www.w3.org/2000/svg">
<path fill-rule="evenodd" clip-rule="evenodd" d="M11.9738 2.26842C11.9738 1.78413 12.1706 1.31967 12.5208 0.977218C12.871 0.634769 13.346 0.442383 13.8413 0.442383H54.9272C55.4225 0.442383 55.8975 0.634769 56.2478 0.977218C56.598 1.31967 56.7948 1.78413 56.7948 2.26842V4.09446H66.1325C66.6278 4.09446 67.1028 4.28685 67.453 4.6293C67.8032 4.97175 68 5.43621 68 5.9205V16.8767C68 19.2982 67.0162 21.6205 65.2651 23.3328C63.5139 25.045 61.1388 26.0069 58.6623 26.0069H55.5192C52.6414 33.9685 45.1917 39.8191 36.2518 40.5404V51.5715H49.3246C49.8199 51.5715 50.2949 51.7639 50.6452 52.1063C50.9954 52.4488 51.1921 52.9132 51.1921 53.3975V64.3538C51.1921 64.8381 50.9954 65.3025 50.6452 65.645C50.2949 65.9874 49.8199 66.1798 49.3246 66.1798H19.444C18.9487 66.1798 18.4736 65.9874 18.1234 65.645C17.7732 65.3025 17.5764 64.8381 17.5764 64.3538V53.3975C17.5764 52.9132 17.7732 52.4488 18.1234 52.1063C18.4736 51.7639 18.9487 51.5715 19.444 51.5715H32.5167V40.5404C23.5787 39.8191 16.1272 33.9685 13.2493 26.0069H10.1063C7.62974 26.0069 5.25466 25.045 3.5035 23.3328C1.75235 21.6205 0.768555 19.2982 0.768555 16.8767V5.9205C0.768555 5.43621 0.965313 4.97175 1.31554 4.6293C1.66578 4.28685 2.14079 4.09446 2.63609 4.09446H11.9738V2.26842ZM53.0597 18.7028V4.09446H15.7089V18.7028C15.7089 28.788 24.0699 36.9632 34.3843 36.9632C44.6987 36.9632 53.0597 28.788 53.0597 18.7028ZM56.7948 7.74654V22.3549H58.6623C60.1482 22.3549 61.5733 21.7777 62.6239 20.7504C63.6746 19.723 64.2649 18.3296 64.2649 16.8767V7.74654H56.7948ZM4.50364 7.74654H11.9738V22.3549H10.1063C8.62035 22.3549 7.1953 21.7777 6.1446 20.7504C5.09391 19.723 4.50364 18.3296 4.50364 16.8767V7.74654ZM21.3115 55.2236V62.5277H47.4571V55.2236H21.3115Z" fill="white"/>
</svg>
