<svg width="74" height="74" viewBox="0 0 74 74" fill="none" xmlns="http://www.w3.org/2000/svg">
<path d="M25.9 18.5L33.3 37L25.9 55.5H33.3L37 46.25L40.7 55.5H48.1L40.7 37L48.1 18.5H40.7L37 27.75L33.3 18.5H25.9ZM37 0C41.8589 0 46.6702 0.957033 51.1593 2.81646C55.6483 4.67588 59.7272 7.40128 63.163 10.837C66.5987 14.2728 69.3241 18.3517 71.1835 22.8407C73.043 27.3298 74 32.1411 74 37C74 46.813 70.1018 56.2241 63.163 63.163C56.2241 70.1018 46.813 74 37 74C32.1411 74 27.3298 73.043 22.8407 71.1835C18.3517 69.3241 14.2728 66.5987 10.837 63.163C3.8982 56.2241 0 46.813 0 37C0 27.187 3.8982 17.7759 10.837 10.837C17.7759 3.8982 27.187 0 37 0Z" fill="#FC6471"/>
</svg>
