<?xml version="1.0" encoding="UTF-8" standalone="no"?>
<svg width="900px" height="684px" viewBox="0 0 900 684"
 xmlns="http://www.w3.org/2000/svg" xmlns:xlink="http://www.w3.org/1999/xlink" version="1.2" baseProfile="tiny">
<title>clarinet-in-eb</title>
<desc>Generated by MuseScore 4.0.2</desc>
<path class="" fill="#ffffff" fill-rule="evenodd" d="M0,0 L900,0 L900,684 L0,684 L0,0 "/>
<polyline class="StaffLines" fill="none" stroke="#000000" stroke-width="4.12" stroke-linejoin="bevel" points="54,295.92 846,295.92"/>
<polyline class="StaffLines" fill="none" stroke="#000000" stroke-width="4.12" stroke-linejoin="bevel" points="54,333.36 846,333.36"/>
<polyline class="StaffLines" fill="none" stroke="#000000" stroke-width="4.12" stroke-linejoin="bevel" points="54,370.8 846,370.8"/>
<polyline class="StaffLines" fill="none" stroke="#000000" stroke-width="4.12" stroke-linejoin="bevel" points="54,408.24 846,408.24"/>
<polyline class="StaffLines" fill="none" stroke="#000000" stroke-width="4.12" stroke-linejoin="bevel" points="54,445.68 846,445.68"/>
<polyline class="BarLine" fill="none" stroke="#000000" stroke-width="6.74" stroke-linejoin="bevel" points="842.63,293.861 842.63,447.739"/>
<polyline class="LedgerLine" fill="none" stroke="#000000" stroke-width="5.99" stroke-linejoin="bevel" points="259.16,520.56 332.53,520.56"/>
<polyline class="LedgerLine" fill="none" stroke="#000000" stroke-width="5.99" stroke-linejoin="bevel" points="259.16,483.12 332.53,483.12"/>
<polyline class="LedgerLine" fill="none" stroke="#000000" stroke-width="5.99" stroke-linejoin="bevel" points="543.033,258.48 616.403,258.48"/>
<polyline class="LedgerLine" fill="none" stroke="#000000" stroke-width="5.99" stroke-linejoin="bevel" points="543.033,221.04 616.403,221.04"/>
<polyline class="Stem" fill="none" stroke="#000000" stroke-width="3.74" stroke-linejoin="bevel" points="318.303,533.29 318.303,370.8"/>
<polyline class="Stem" fill="none" stroke="#000000" stroke-width="3.74" stroke-linejoin="bevel" points="557.26,227.33 557.26,370.8"/>
<path class="Note" transform="matrix(1.4976,0,0,1.4976,271.515,539.28)" d="M0,4.2 C0,8.5 3.1,13.3 11.2,13.3 C21.6,13.3 32.5,4.8 32.5,-4 C32.5,-9.9 27.5,-13.2 21.3,-13.2 C11.6,-13.2 0,-5 0,4.2"/>
<path class="Note" transform="matrix(1.4976,0,0,1.4976,555.388,221.04)" d="M0,4.2 C0,8.5 3.1,13.3 11.2,13.3 C21.6,13.3 32.5,4.8 32.5,-4 C32.5,-9.9 27.5,-13.2 21.3,-13.2 C11.6,-13.2 0,-5 0,4.2"/>
<path class="Clef" transform="matrix(1.4976,0,0,1.4976,82.08,408.24)" d="M12.3,51.3 C12.3,57.9 17.3,66.6 30.8,66.6 C35.5,66.6 39.6,65.4 43.2,63.2 C48.6,59.4 50,52.8 50,46.5 C50,42.6 49.4,38.1 48.4,32.4 C48.1,30.4 47.5,27.4 46.9,23.5 C56.7,20.3 64,10.1 64,-0.2 C64,-15.3 53.3,-25.5 38.7,-25.5 C37.7,-31.5 36.7,-37.4 35.9,-43 C46.4,-54.1 53.7,-66.6 53.7,-82.5 C53.7,-91.6 50.9,-99 49.3,-102.6 C46.9,-107.7 44,-111.2 42.2,-111.2 C41.5,-111.2 38.4,-110 35.1,-106.1 C28.7,-98.5 26.9,-85.7 26.9,-77.3 C26.9,-71.9 27.4,-67 29.1,-55.8 C29,-55.7 23.8,-50.4 21.7,-48.7 C12.6,-40.3 0,-28.1 0,-8.1 C0,10.6 16.3,25.3 34.9,25.3 C37.8,25.3 40.5,25 42.8,24.6 C44.7,34.2 45.9,41.2 45.9,46.5 C45.9,56.9 40.5,62.4 30.4,62.4 C28,62.4 25.9,61.9 25.7,61.9 C25.6,61.8 25.4,61.7 25.4,61.6 C25.4,61.4 25.6,61.3 25.9,61.3 C30.6,60.5 35.3,56.5 35.3,50.1 C35.3,44.7 31.2,39 23.7,39 C16.7,39 12.3,44.7 12.3,51.3 M33.2,-82.2 C34.1,-86.2 38.7,-96.7 43.9,-96.7 C45.4,-96.7 47.8,-91.9 47.8,-84.9 C47.8,-74.5 40.1,-66.7 33.2,-59.9 C32.6,-63.9 32.1,-67.8 32.1,-72 C32.1,-75.7 32.4,-79.1 33.2,-82.2 M42,20.6 C40,21 38.1,21.2 36.2,21.2 C21.9,21.2 9.7,11.2 9.7,-3.9 C9.7,-16.1 18.3,-27 27.1,-34.6 C28.8,-36.1 30.4,-37.5 31.9,-39 C32.8,-33.6 33.5,-28.9 34.2,-24.8 C25.1,-22.1 18.9,-12.5 18.9,-3.1 C18.9,3.9 24.4,13.5 32.4,13.5 C33.2,13.5 34.1,13.1 34.1,12.2 C34.1,11.3 33.1,10.8 31.9,10 C28,7.6 25.8,5 25.8,0.1 C25.8,-6 30.4,-10.9 36.2,-12.3 L42,20.6 M56.2,2.1 C56.2,9.2 53.3,16.5 46.2,19.4 C44.1,7.4 41.4,-8.5 40.7,-12.9 C49.7,-12.9 56.2,-6.8 56.2,2.1"/>
<path class="OttavaSegment" d="M600.6,115.375 L582.6,116.275 L582,119.575 L583.65,119.575 C586.95,119.575 587.85,120.025 587.85,121.675 C587.85,122.425 587.55,123.625 586.8,126.175 L584.55,133.525 C584.25,134.875 583.8,137.275 583.8,138.775 C583.8,141.775 584.7,144.325 586.65,145.975 C588.75,147.775 591.45,148.675 594.3,148.675 C599.85,148.675 604.95,145.075 608.85,138.325 C611.7,133.075 613.8,126.325 613.8,121.375 C613.8,117.925 611.55,115.375 608.4,115.375 C605.55,115.375 603.75,117.175 603.75,119.725 C603.75,121.225 604.5,122.425 605.85,123.625 C608.55,126.175 608.7,126.475 608.7,127.825 C608.7,130.975 607.2,134.875 604.5,138.925 C602.4,142.225 600,143.875 597.75,143.875 C595.95,143.875 594,142.075 594,139.975 C594,138.625 594.15,138.325 595.65,132.175 L600.6,115.375 M645.9,116.275 L644.85,119.575 C643.2,116.875 640.35,115.525 636.3,115.525 C626.25,115.525 617.1,125.725 617.1,136.525 C617.1,143.725 621.9,148.675 628.8,148.675 C633.45,148.675 636.6,147.025 639.75,142.825 C639.75,144.475 639.9,144.475 640.05,144.925 C640.65,147.175 642.75,148.675 645.6,148.675 C649.05,148.675 652.05,147.025 655.35,143.125 C656.7,141.625 658.65,138.925 659.7,137.125 L657.15,135.475 C654.6,139.375 651.15,142.975 650.1,142.975 C649.65,142.975 649.2,142.525 649.2,141.925 C649.2,141.775 649.2,141.775 649.2,141.625 C649.2,141.175 649.35,140.725 649.8,138.925 L656.4,116.275 L645.9,116.275 M631.35,125.575 C633.45,121.225 635.85,119.275 638.7,119.275 C641.1,119.275 642.75,121.225 642.75,124.075 C642.75,127.525 641.25,132.925 639.3,137.425 C637.2,141.775 634.8,144.025 632.25,144.025 C629.55,144.025 628.05,141.925 628.05,138.625 C628.05,135.025 629.4,129.625 631.35,125.575 M574.8,156.925 C574.8,151.075 571.95,145.825 566.55,142.375 C574.8,139.225 578.7,134.875 578.7,128.725 C578.7,120.775 571.8,115.525 561.9,115.525 C549.6,115.525 540.9,123.025 540.9,133.525 C540.9,138.625 542.7,142.075 547.2,145.975 C543.75,147.325 541.2,148.525 538.95,150.175 C535.2,153.175 532.8,157.525 532.8,161.875 C532.8,169.975 540.3,175.375 551.4,175.375 C565.35,175.375 574.8,167.725 574.8,156.925 M542.85,161.425 C542.85,156.025 545.55,151.525 550.35,148.675 C551.55,149.425 551.7,149.425 552.75,149.875 C555.9,151.525 555.9,151.525 556.5,151.825 C561.75,154.975 564,157.825 564,161.875 C564,167.275 559.35,171.325 553.05,171.325 C546.9,171.325 542.85,167.425 542.85,161.425 M569.4,128.875 C569.4,133.675 567.6,136.675 563.25,139.975 C558.6,137.575 557.85,137.275 556.65,136.525 C552.45,133.975 551.1,132.025 551.1,128.425 C551.1,123.325 554.85,119.725 560.4,119.725 C565.95,119.725 569.4,123.175 569.4,128.875"/>
<polyline class="OttavaSegment" fill="none" stroke="#000000" stroke-dasharray="24.7104,-9.9216" stroke-dashoffset="0" stroke-width="4.12" stroke-linejoin="miter" stroke-miterlimit="2" points="706.429,152.051 706.429,112.551"/>
<polyline class="OttavaSegment" fill="none" stroke="#000000" stroke-dasharray="24.7104,-19.2006" stroke-dashoffset="0" stroke-width="4.12" stroke-linejoin="miter" stroke-miterlimit="2" points="678.41,117.434 708.478,114.404"/>
<polyline class="TextLineSegment" fill="none" stroke="#000000" stroke-width="7.91" stroke-linejoin="miter" stroke-miterlimit="2" points="361.002,490.456 517.634,254.176"/>
</svg>
