<?xml version="1.0" encoding="UTF-8" standalone="no"?>
<svg width="900px" height="684px" viewBox="0 0 900 684"
 xmlns="http://www.w3.org/2000/svg" xmlns:xlink="http://www.w3.org/1999/xlink" version="1.2" baseProfile="tiny">
<title>xylophone</title>
<desc>Generated by MuseScore 4.0.2</desc>
<path class="" fill="#ffffff" fill-rule="evenodd" d="M0,0 L900,0 L900,684 L0,684 L0,0 "/>
<polyline class="StaffLines" fill="none" stroke="#000000" stroke-width="4.12" stroke-linejoin="bevel" points="54,295.92 846,295.92"/>
<polyline class="StaffLines" fill="none" stroke="#000000" stroke-width="4.12" stroke-linejoin="bevel" points="54,333.36 846,333.36"/>
<polyline class="StaffLines" fill="none" stroke="#000000" stroke-width="4.12" stroke-linejoin="bevel" points="54,370.8 846,370.8"/>
<polyline class="StaffLines" fill="none" stroke="#000000" stroke-width="4.12" stroke-linejoin="bevel" points="54,408.24 846,408.24"/>
<polyline class="StaffLines" fill="none" stroke="#000000" stroke-width="4.12" stroke-linejoin="bevel" points="54,445.68 846,445.68"/>
<polyline class="BarLine" fill="none" stroke="#000000" stroke-width="6.74" stroke-linejoin="bevel" points="842.63,293.861 842.63,447.739"/>
<polyline class="LedgerLine" fill="none" stroke="#000000" stroke-width="5.99" stroke-linejoin="bevel" points="259.16,558 332.53,558"/>
<polyline class="LedgerLine" fill="none" stroke="#000000" stroke-width="5.99" stroke-linejoin="bevel" points="259.16,520.56 332.53,520.56"/>
<polyline class="LedgerLine" fill="none" stroke="#000000" stroke-width="5.99" stroke-linejoin="bevel" points="259.16,483.12 332.53,483.12"/>
<polyline class="LedgerLine" fill="none" stroke="#000000" stroke-width="5.99" stroke-linejoin="bevel" points="543.033,258.48 616.403,258.48"/>
<polyline class="LedgerLine" fill="none" stroke="#000000" stroke-width="5.99" stroke-linejoin="bevel" points="543.033,221.04 616.403,221.04"/>
<polyline class="Stem" fill="none" stroke="#000000" stroke-width="3.74" stroke-linejoin="bevel" points="318.303,552.01 318.303,370.8"/>
<polyline class="Stem" fill="none" stroke="#000000" stroke-width="3.74" stroke-linejoin="bevel" points="557.26,227.33 557.26,370.8"/>
<path class="Note" transform="matrix(1.4976,0,0,1.4976,271.515,558)" d="M0,4.2 C0,8.5 3.1,13.3 11.2,13.3 C21.6,13.3 32.5,4.8 32.5,-4 C32.5,-9.9 27.5,-13.2 21.3,-13.2 C11.6,-13.2 0,-5 0,4.2"/>
<path class="Note" transform="matrix(1.4976,0,0,1.4976,555.388,221.04)" d="M0,4.2 C0,8.5 3.1,13.3 11.2,13.3 C21.6,13.3 32.5,4.8 32.5,-4 C32.5,-9.9 27.5,-13.2 21.3,-13.2 C11.6,-13.2 0,-5 0,4.2"/>
<path class="Clef" transform="matrix(1.4976,0,0,1.4976,82.08,408.24)" d="M12.3,51.3 C12.3,57.9 17.3,66.6 30.8,66.6 C35.5,66.6 39.6,65.4 43.2,63.2 C48.6,59.4 50,52.8 50,46.5 C50,42.6 49.4,38.1 48.4,32.4 C48.1,30.4 47.5,27.4 46.9,23.5 C56.7,20.3 64,10.1 64,-0.2 C64,-15.3 53.3,-25.5 38.7,-25.5 C37.7,-31.5 36.7,-37.4 35.9,-43 C46.4,-54.1 53.7,-66.6 53.7,-82.5 C53.7,-91.6 50.9,-99 49.3,-102.6 C46.9,-107.7 44,-111.2 42.2,-111.2 C41.5,-111.2 38.4,-110 35.1,-106.1 C28.7,-98.5 26.9,-85.7 26.9,-77.3 C26.9,-71.9 27.4,-67 29.1,-55.8 C29,-55.7 23.8,-50.4 21.7,-48.7 C12.6,-40.3 0,-28.1 0,-8.1 C0,10.6 16.3,25.3 34.9,25.3 C37.8,25.3 40.5,25 42.8,24.6 C44.7,34.2 45.9,41.2 45.9,46.5 C45.9,56.9 40.5,62.4 30.4,62.4 C28,62.4 25.9,61.9 25.7,61.9 C25.6,61.8 25.4,61.7 25.4,61.6 C25.4,61.4 25.6,61.3 25.9,61.3 C30.6,60.5 35.3,56.5 35.3,50.1 C35.3,44.7 31.2,39 23.7,39 C16.7,39 12.3,44.7 12.3,51.3 M33.2,-82.2 C34.1,-86.2 38.7,-96.7 43.9,-96.7 C45.4,-96.7 47.8,-91.9 47.8,-84.9 C47.8,-74.5 40.1,-66.7 33.2,-59.9 C32.6,-63.9 32.1,-67.8 32.1,-72 C32.1,-75.7 32.4,-79.1 33.2,-82.2 M42,20.6 C40,21 38.1,21.2 36.2,21.2 C21.9,21.2 9.7,11.2 9.7,-3.9 C9.7,-16.1 18.3,-27 27.1,-34.6 C28.8,-36.1 30.4,-37.5 31.9,-39 C32.8,-33.6 33.5,-28.9 34.2,-24.8 C25.1,-22.1 18.9,-12.5 18.9,-3.1 C18.9,3.9 24.4,13.5 32.4,13.5 C33.2,13.5 34.1,13.1 34.1,12.2 C34.1,11.3 33.1,10.8 31.9,10 C28,7.6 25.8,5 25.8,0.1 C25.8,-6 30.4,-10.9 36.2,-12.3 L42,20.6 M56.2,2.1 C56.2,9.2 53.3,16.5 46.2,19.4 C44.1,7.4 41.4,-8.5 40.7,-12.9 C49.7,-12.9 56.2,-6.8 56.2,2.1"/>
<path class="OttavaSegment" d="M611.894,115.375 L593.894,116.275 L593.294,119.575 L594.944,119.575 C598.244,119.575 599.144,120.025 599.144,121.675 C599.144,122.425 598.844,123.625 598.094,126.175 L595.844,133.525 C595.544,134.875 595.094,137.275 595.094,138.775 C595.094,141.775 595.994,144.325 597.944,145.975 C600.044,147.775 602.744,148.675 605.594,148.675 C611.144,148.675 616.244,145.075 620.144,138.325 C622.994,133.075 625.094,126.325 625.094,121.375 C625.094,117.925 622.844,115.375 619.694,115.375 C616.844,115.375 615.044,117.175 615.044,119.725 C615.044,121.225 615.794,122.425 617.144,123.625 C619.844,126.175 619.994,126.475 619.994,127.825 C619.994,130.975 618.494,134.875 615.794,138.925 C613.694,142.225 611.294,143.875 609.044,143.875 C607.244,143.875 605.294,142.075 605.294,139.975 C605.294,138.625 605.444,138.325 606.944,132.175 L611.894,115.375 M657.194,116.275 L656.144,119.575 C654.494,116.875 651.644,115.525 647.594,115.525 C637.544,115.525 628.394,125.725 628.394,136.525 C628.394,143.725 633.194,148.675 640.094,148.675 C644.744,148.675 647.894,147.025 651.044,142.825 C651.044,144.475 651.194,144.475 651.344,144.925 C651.944,147.175 654.044,148.675 656.894,148.675 C660.344,148.675 663.344,147.025 666.644,143.125 C667.994,141.625 669.944,138.925 670.994,137.125 L668.444,135.475 C665.894,139.375 662.444,142.975 661.394,142.975 C660.944,142.975 660.494,142.525 660.494,141.925 C660.494,141.775 660.494,141.775 660.494,141.625 C660.494,141.175 660.644,140.725 661.094,138.925 L667.694,116.275 L657.194,116.275 M642.644,125.575 C644.744,121.225 647.144,119.275 649.994,119.275 C652.394,119.275 654.044,121.225 654.044,124.075 C654.044,127.525 652.544,132.925 650.594,137.425 C648.494,141.775 646.094,144.025 643.544,144.025 C640.844,144.025 639.344,141.925 639.344,138.625 C639.344,135.025 640.694,129.625 642.644,125.575 M586.094,156.925 C586.094,151.075 583.244,145.825 577.844,142.375 C586.094,139.225 589.994,134.875 589.994,128.725 C589.994,120.775 583.094,115.525 573.194,115.525 C560.894,115.525 552.194,123.025 552.194,133.525 C552.194,138.625 553.994,142.075 558.494,145.975 C555.044,147.325 552.494,148.525 550.244,150.175 C546.494,153.175 544.094,157.525 544.094,161.875 C544.094,169.975 551.594,175.375 562.694,175.375 C576.644,175.375 586.094,167.725 586.094,156.925 M554.144,161.425 C554.144,156.025 556.844,151.525 561.644,148.675 C562.844,149.425 562.994,149.425 564.044,149.875 C567.194,151.525 567.194,151.525 567.794,151.825 C573.044,154.975 575.294,157.825 575.294,161.875 C575.294,167.275 570.644,171.325 564.344,171.325 C558.194,171.325 554.144,167.425 554.144,161.425 M580.694,128.875 C580.694,133.675 578.894,136.675 574.544,139.975 C569.894,137.575 569.144,137.275 567.944,136.525 C563.744,133.975 562.394,132.025 562.394,128.425 C562.394,123.325 566.144,119.725 571.694,119.725 C577.244,119.725 580.694,123.175 580.694,128.875"/>
<polyline class="OttavaSegment" fill="none" stroke="#000000" stroke-dasharray="24.7104,-10.2401" stroke-dashoffset="0" stroke-width="4.12" stroke-linejoin="miter" stroke-miterlimit="2" points="706.429,157.698 706.429,118.517"/>
<polyline class="OttavaSegment" fill="none" stroke="#000000" stroke-dasharray="24.7104,-30.7185" stroke-dashoffset="0" stroke-width="4.12" stroke-linejoin="miter" stroke-miterlimit="2" points="689.704,117.434 708.146,120.547"/>
<polyline class="TextLineSegment" fill="none" stroke="#000000" stroke-width="7.91" stroke-linejoin="miter" stroke-miterlimit="2" points="341.237,548.705 517.634,254.176"/>
</svg>
