<?xml version="1.0" encoding="UTF-8" standalone="no"?>
<svg width="900px" height="684px" viewBox="0 0 900 684"
 xmlns="http://www.w3.org/2000/svg" xmlns:xlink="http://www.w3.org/1999/xlink" version="1.2" baseProfile="tiny">
<title>bells</title>
<desc>Generated by MuseScore 4.0.2</desc>
<path class="" fill="#ffffff" fill-rule="evenodd" d="M0,0 L900,0 L900,684 L0,684 L0,0 "/>
<polyline class="StaffLines" fill="none" stroke="#000000" stroke-width="4.12" stroke-linejoin="bevel" points="54,397.155 846,397.155"/>
<polyline class="StaffLines" fill="none" stroke="#000000" stroke-width="4.12" stroke-linejoin="bevel" points="54,434.595 846,434.595"/>
<polyline class="StaffLines" fill="none" stroke="#000000" stroke-width="4.12" stroke-linejoin="bevel" points="54,472.035 846,472.035"/>
<polyline class="StaffLines" fill="none" stroke="#000000" stroke-width="4.12" stroke-linejoin="bevel" points="54,509.475 846,509.475"/>
<polyline class="StaffLines" fill="none" stroke="#000000" stroke-width="4.12" stroke-linejoin="bevel" points="54,546.915 846,546.915"/>
<polyline class="BarLine" fill="none" stroke="#000000" stroke-width="6.74" stroke-linejoin="bevel" points="842.63,395.096 842.63,548.974"/>
<polyline class="LedgerLine" fill="none" stroke="#000000" stroke-width="5.99" stroke-linejoin="bevel" points="543.033,359.715 616.403,359.715"/>
<polyline class="LedgerLine" fill="none" stroke="#000000" stroke-width="5.99" stroke-linejoin="bevel" points="543.033,322.275 616.403,322.275"/>
<polyline class="LedgerLine" fill="none" stroke="#000000" stroke-width="5.99" stroke-linejoin="bevel" points="543.033,284.835 616.403,284.835"/>
<polyline class="LedgerLine" fill="none" stroke="#000000" stroke-width="5.99" stroke-linejoin="bevel" points="543.033,247.395 616.403,247.395"/>
<polyline class="LedgerLine" fill="none" stroke="#000000" stroke-width="5.99" stroke-linejoin="bevel" points="543.033,209.955 616.403,209.955"/>
<polyline class="Stem" fill="none" stroke="#000000" stroke-width="3.74" stroke-linejoin="bevel" points="273.387,459.605 273.387,574.995"/>
<polyline class="Stem" fill="none" stroke="#000000" stroke-width="3.74" stroke-linejoin="bevel" points="557.26,197.525 557.26,472.035"/>
<path class="Note" transform="matrix(1.4976,0,0,1.4976,271.515,453.315)" d="M0,4.2 C0,8.5 3.1,13.3 11.2,13.3 C21.6,13.3 32.5,4.8 32.5,-4 C32.5,-9.9 27.5,-13.2 21.3,-13.2 C11.6,-13.2 0,-5 0,4.2"/>
<path class="Note" transform="matrix(1.4976,0,0,1.4976,555.388,191.235)" d="M0,4.2 C0,8.5 3.1,13.3 11.2,13.3 C21.6,13.3 32.5,4.8 32.5,-4 C32.5,-9.9 27.5,-13.2 21.3,-13.2 C11.6,-13.2 0,-5 0,4.2"/>
<path class="Clef" transform="matrix(1.4976,0,0,1.4976,82.08,509.475)" d="M12.3,51.3 C12.3,57.9 17.3,66.6 30.8,66.6 C35.5,66.6 39.6,65.4 43.2,63.2 C48.6,59.4 50,52.8 50,46.5 C50,42.6 49.4,38.1 48.4,32.4 C48.1,30.4 47.5,27.4 46.9,23.5 C56.7,20.3 64,10.1 64,-0.2 C64,-15.3 53.3,-25.5 38.7,-25.5 C37.7,-31.5 36.7,-37.4 35.9,-43 C46.4,-54.1 53.7,-66.6 53.7,-82.5 C53.7,-91.6 50.9,-99 49.3,-102.6 C46.9,-107.7 44,-111.2 42.2,-111.2 C41.5,-111.2 38.4,-110 35.1,-106.1 C28.7,-98.5 26.9,-85.7 26.9,-77.3 C26.9,-71.9 27.4,-67 29.1,-55.8 C29,-55.7 23.8,-50.4 21.7,-48.7 C12.6,-40.3 0,-28.1 0,-8.1 C0,10.6 16.3,25.3 34.9,25.3 C37.8,25.3 40.5,25 42.8,24.6 C44.7,34.2 45.9,41.2 45.9,46.5 C45.9,56.9 40.5,62.4 30.4,62.4 C28,62.4 25.9,61.9 25.7,61.9 C25.6,61.8 25.4,61.7 25.4,61.6 C25.4,61.4 25.6,61.3 25.9,61.3 C30.6,60.5 35.3,56.5 35.3,50.1 C35.3,44.7 31.2,39 23.7,39 C16.7,39 12.3,44.7 12.3,51.3 M33.2,-82.2 C34.1,-86.2 38.7,-96.7 43.9,-96.7 C45.4,-96.7 47.8,-91.9 47.8,-84.9 C47.8,-74.5 40.1,-66.7 33.2,-59.9 C32.6,-63.9 32.1,-67.8 32.1,-72 C32.1,-75.7 32.4,-79.1 33.2,-82.2 M42,20.6 C40,21 38.1,21.2 36.2,21.2 C21.9,21.2 9.7,11.2 9.7,-3.9 C9.7,-16.1 18.3,-27 27.1,-34.6 C28.8,-36.1 30.4,-37.5 31.9,-39 C32.8,-33.6 33.5,-28.9 34.2,-24.8 C25.1,-22.1 18.9,-12.5 18.9,-3.1 C18.9,3.9 24.4,13.5 32.4,13.5 C33.2,13.5 34.1,13.1 34.1,12.2 C34.1,11.3 33.1,10.8 31.9,10 C28,7.6 25.8,5 25.8,0.1 C25.8,-6 30.4,-10.9 36.2,-12.3 L42,20.6 M56.2,2.1 C56.2,9.2 53.3,16.5 46.2,19.4 C44.1,7.4 41.4,-8.5 40.7,-12.9 C49.7,-12.9 56.2,-6.8 56.2,2.1"/>
<path class="OttavaSegment" d="M603.423,94.3509 L585.423,95.2509 L584.823,98.5509 L586.473,98.5509 C589.773,98.5509 590.673,99.0009 590.673,100.651 C590.673,101.401 590.373,102.601 589.623,105.151 L587.373,112.501 C587.073,113.851 586.623,116.251 586.623,117.751 C586.623,120.751 587.523,123.301 589.473,124.951 C591.573,126.751 594.273,127.651 597.123,127.651 C602.673,127.651 607.773,124.051 611.673,117.301 C614.523,112.051 616.623,105.301 616.623,100.351 C616.623,96.9009 614.373,94.3509 611.223,94.3509 C608.373,94.3509 606.573,96.1509 606.573,98.7009 C606.573,100.201 607.323,101.401 608.673,102.601 C611.373,105.151 611.523,105.451 611.523,106.801 C611.523,109.951 610.023,113.851 607.323,117.901 C605.223,121.201 602.823,122.851 600.573,122.851 C598.773,122.851 596.823,121.051 596.823,118.951 C596.823,117.601 596.973,117.301 598.473,111.151 L603.423,94.3509 M648.723,95.2509 L647.673,98.5509 C646.023,95.8509 643.173,94.5009 639.123,94.5009 C629.073,94.5009 619.923,104.701 619.923,115.501 C619.923,122.701 624.723,127.651 631.623,127.651 C636.273,127.651 639.423,126.001 642.573,121.801 C642.573,123.451 642.723,123.451 642.873,123.901 C643.473,126.151 645.573,127.651 648.423,127.651 C651.873,127.651 654.873,126.001 658.173,122.101 C659.523,120.601 661.473,117.901 662.523,116.101 L659.973,114.451 C657.423,118.351 653.973,121.951 652.923,121.951 C652.473,121.951 652.023,121.501 652.023,120.901 C652.023,120.751 652.023,120.751 652.023,120.601 C652.023,120.151 652.173,119.701 652.623,117.901 L659.223,95.2509 L648.723,95.2509 M634.173,104.551 C636.273,100.201 638.673,98.2509 641.523,98.2509 C643.923,98.2509 645.573,100.201 645.573,103.051 C645.573,106.501 644.073,111.901 642.123,116.401 C640.023,120.751 637.623,123.001 635.073,123.001 C632.373,123.001 630.873,120.901 630.873,117.601 C630.873,114.001 632.223,108.601 634.173,104.551 M577.623,135.901 C577.623,130.051 574.773,124.801 569.373,121.351 C577.623,118.201 581.523,113.851 581.523,107.701 C581.523,99.7509 574.623,94.5009 564.723,94.5009 C552.423,94.5009 543.723,102.001 543.723,112.501 C543.723,117.601 545.523,121.051 550.023,124.951 C546.573,126.301 544.023,127.501 541.773,129.151 C538.023,132.151 535.623,136.501 535.623,140.851 C535.623,148.951 543.123,154.351 554.223,154.351 C568.173,154.351 577.623,146.701 577.623,135.901 M545.673,140.401 C545.673,135.001 548.373,130.501 553.173,127.651 C554.373,128.401 554.523,128.401 555.573,128.851 C558.723,130.501 558.723,130.501 559.323,130.801 C564.573,133.951 566.823,136.801 566.823,140.851 C566.823,146.251 562.173,150.301 555.873,150.301 C549.723,150.301 545.673,146.401 545.673,140.401 M572.223,107.851 C572.223,112.651 570.423,115.651 566.073,118.951 C561.423,116.551 560.673,116.251 559.473,115.501 C555.273,112.951 553.923,111.001 553.923,107.401 C553.923,102.301 557.673,98.7009 563.223,98.7009 C568.773,98.7009 572.223,102.151 572.223,107.851"/>
<polyline class="OttavaSegment" fill="none" stroke="#000000" stroke-dasharray="24.7104,-9.9216" stroke-dashoffset="0" stroke-width="4.12" stroke-linejoin="miter" stroke-miterlimit="2" points="709.253,131.027 709.253,91.5273"/>
<polyline class="OttavaSegment" fill="none" stroke="#000000" stroke-dasharray="24.7104,-19.2005" stroke-dashoffset="0" stroke-width="4.12" stroke-linejoin="miter" stroke-miterlimit="2" points="681.234,96.4101 711.302,93.3801"/>
<polyline class="TextLineSegment" fill="none" stroke="#000000" stroke-width="7.91" stroke-linejoin="miter" stroke-miterlimit="2" points="341.237,444.02 517.634,224.371"/>
</svg>
