<?xml version="1.0" encoding="UTF-8" standalone="no"?>
<svg width="900px" height="684px" viewBox="0 0 900 684"
 xmlns="http://www.w3.org/2000/svg" xmlns:xlink="http://www.w3.org/1999/xlink" version="1.2" baseProfile="tiny">
<title>clarinet-in-bb</title>
<desc>Generated by MuseScore 4.0.2</desc>
<path class="" fill="#ffffff" fill-rule="evenodd" d="M0,0 L900,0 L900,684 L0,684 L0,0 "/>
<polyline class="StaffLines" fill="none" stroke="#000000" stroke-width="4.12" stroke-linejoin="bevel" points="54,295.92 846,295.92"/>
<polyline class="StaffLines" fill="none" stroke="#000000" stroke-width="4.12" stroke-linejoin="bevel" points="54,333.36 846,333.36"/>
<polyline class="StaffLines" fill="none" stroke="#000000" stroke-width="4.12" stroke-linejoin="bevel" points="54,370.8 846,370.8"/>
<polyline class="StaffLines" fill="none" stroke="#000000" stroke-width="4.12" stroke-linejoin="bevel" points="54,408.24 846,408.24"/>
<polyline class="StaffLines" fill="none" stroke="#000000" stroke-width="4.12" stroke-linejoin="bevel" points="54,445.68 846,445.68"/>
<polyline class="BarLine" fill="none" stroke="#000000" stroke-width="6.74" stroke-linejoin="bevel" points="842.63,293.861 842.63,447.739"/>
<polyline class="LedgerLine" fill="none" stroke="#000000" stroke-width="5.99" stroke-linejoin="bevel" points="259.16,558 332.53,558"/>
<polyline class="LedgerLine" fill="none" stroke="#000000" stroke-width="5.99" stroke-linejoin="bevel" points="259.16,520.56 332.53,520.56"/>
<polyline class="LedgerLine" fill="none" stroke="#000000" stroke-width="5.99" stroke-linejoin="bevel" points="259.16,483.12 332.53,483.12"/>
<polyline class="Stem" fill="none" stroke="#000000" stroke-width="3.74" stroke-linejoin="bevel" points="318.303,570.73 318.303,370.8"/>
<polyline class="Stem" fill="none" stroke="#000000" stroke-width="3.74" stroke-linejoin="bevel" points="557.26,283.49 557.26,408.24"/>
<path class="Note" transform="matrix(1.4976,0,0,1.4976,555.388,277.2)" d="M0,4.2 C0,8.5 3.1,13.3 11.2,13.3 C21.6,13.3 32.5,4.8 32.5,-4 C32.5,-9.9 27.5,-13.2 21.3,-13.2 C11.6,-13.2 0,-5 0,4.2"/>
<path class="Note" transform="matrix(1.4976,0,0,1.4976,271.515,576.72)" d="M0,4.2 C0,8.5 3.1,13.3 11.2,13.3 C21.6,13.3 32.5,4.8 32.5,-4 C32.5,-9.9 27.5,-13.2 21.3,-13.2 C11.6,-13.2 0,-5 0,4.2"/>
<path class="Clef" transform="matrix(1.4976,0,0,1.4976,82.08,408.24)" d="M12.3,51.3 C12.3,57.9 17.3,66.6 30.8,66.6 C35.5,66.6 39.6,65.4 43.2,63.2 C48.6,59.4 50,52.8 50,46.5 C50,42.6 49.4,38.1 48.4,32.4 C48.1,30.4 47.5,27.4 46.9,23.5 C56.7,20.3 64,10.1 64,-0.2 C64,-15.3 53.3,-25.5 38.7,-25.5 C37.7,-31.5 36.7,-37.4 35.9,-43 C46.4,-54.1 53.7,-66.6 53.7,-82.5 C53.7,-91.6 50.9,-99 49.3,-102.6 C46.9,-107.7 44,-111.2 42.2,-111.2 C41.5,-111.2 38.4,-110 35.1,-106.1 C28.7,-98.5 26.9,-85.7 26.9,-77.3 C26.9,-71.9 27.4,-67 29.1,-55.8 C29,-55.7 23.8,-50.4 21.7,-48.7 C12.6,-40.3 0,-28.1 0,-8.1 C0,10.6 16.3,25.3 34.9,25.3 C37.8,25.3 40.5,25 42.8,24.6 C44.7,34.2 45.9,41.2 45.9,46.5 C45.9,56.9 40.5,62.4 30.4,62.4 C28,62.4 25.9,61.9 25.7,61.9 C25.6,61.8 25.4,61.7 25.4,61.6 C25.4,61.4 25.6,61.3 25.9,61.3 C30.6,60.5 35.3,56.5 35.3,50.1 C35.3,44.7 31.2,39 23.7,39 C16.7,39 12.3,44.7 12.3,51.3 M33.2,-82.2 C34.1,-86.2 38.7,-96.7 43.9,-96.7 C45.4,-96.7 47.8,-91.9 47.8,-84.9 C47.8,-74.5 40.1,-66.7 33.2,-59.9 C32.6,-63.9 32.1,-67.8 32.1,-72 C32.1,-75.7 32.4,-79.1 33.2,-82.2 M42,20.6 C40,21 38.1,21.2 36.2,21.2 C21.9,21.2 9.7,11.2 9.7,-3.9 C9.7,-16.1 18.3,-27 27.1,-34.6 C28.8,-36.1 30.4,-37.5 31.9,-39 C32.8,-33.6 33.5,-28.9 34.2,-24.8 C25.1,-22.1 18.9,-12.5 18.9,-3.1 C18.9,3.9 24.4,13.5 32.4,13.5 C33.2,13.5 34.1,13.1 34.1,12.2 C34.1,11.3 33.1,10.8 31.9,10 C28,7.6 25.8,5 25.8,0.1 C25.8,-6 30.4,-10.9 36.2,-12.3 L42,20.6 M56.2,2.1 C56.2,9.2 53.3,16.5 46.2,19.4 C44.1,7.4 41.4,-8.5 40.7,-12.9 C49.7,-12.9 56.2,-6.8 56.2,2.1"/>
<path class="OttavaSegment" d="M603.423,180.316 L585.423,181.216 L584.823,184.516 L586.473,184.516 C589.773,184.516 590.673,184.966 590.673,186.616 C590.673,187.366 590.373,188.566 589.623,191.116 L587.373,198.466 C587.073,199.816 586.623,202.216 586.623,203.716 C586.623,206.716 587.523,209.266 589.473,210.916 C591.573,212.716 594.273,213.616 597.123,213.616 C602.673,213.616 607.773,210.016 611.673,203.266 C614.523,198.016 616.623,191.266 616.623,186.316 C616.623,182.866 614.373,180.316 611.223,180.316 C608.373,180.316 606.573,182.116 606.573,184.666 C606.573,186.166 607.323,187.366 608.673,188.566 C611.373,191.116 611.523,191.416 611.523,192.766 C611.523,195.916 610.023,199.816 607.323,203.866 C605.223,207.166 602.823,208.816 600.573,208.816 C598.773,208.816 596.823,207.016 596.823,204.916 C596.823,203.566 596.973,203.266 598.473,197.116 L603.423,180.316 M648.723,181.216 L647.673,184.516 C646.023,181.816 643.173,180.466 639.123,180.466 C629.073,180.466 619.923,190.666 619.923,201.466 C619.923,208.666 624.723,213.616 631.623,213.616 C636.273,213.616 639.423,211.966 642.573,207.766 C642.573,209.416 642.723,209.416 642.873,209.866 C643.473,212.116 645.573,213.616 648.423,213.616 C651.873,213.616 654.873,211.966 658.173,208.066 C659.523,206.566 661.473,203.866 662.523,202.066 L659.973,200.416 C657.423,204.316 653.973,207.916 652.923,207.916 C652.473,207.916 652.023,207.466 652.023,206.866 C652.023,206.716 652.023,206.716 652.023,206.566 C652.023,206.116 652.173,205.666 652.623,203.866 L659.223,181.216 L648.723,181.216 M634.173,190.516 C636.273,186.166 638.673,184.216 641.523,184.216 C643.923,184.216 645.573,186.166 645.573,189.016 C645.573,192.466 644.073,197.866 642.123,202.366 C640.023,206.716 637.623,208.966 635.073,208.966 C632.373,208.966 630.873,206.866 630.873,203.566 C630.873,199.966 632.223,194.566 634.173,190.516 M577.623,221.866 C577.623,216.016 574.773,210.766 569.373,207.316 C577.623,204.166 581.523,199.816 581.523,193.666 C581.523,185.716 574.623,180.466 564.723,180.466 C552.423,180.466 543.723,187.966 543.723,198.466 C543.723,203.566 545.523,207.016 550.023,210.916 C546.573,212.266 544.023,213.466 541.773,215.116 C538.023,218.116 535.623,222.466 535.623,226.816 C535.623,234.916 543.123,240.316 554.223,240.316 C568.173,240.316 577.623,232.666 577.623,221.866 M545.673,226.366 C545.673,220.966 548.373,216.466 553.173,213.616 C554.373,214.366 554.523,214.366 555.573,214.816 C558.723,216.466 558.723,216.466 559.323,216.766 C564.573,219.916 566.823,222.766 566.823,226.816 C566.823,232.216 562.173,236.266 555.873,236.266 C549.723,236.266 545.673,232.366 545.673,226.366 M572.223,193.816 C572.223,198.616 570.423,201.616 566.073,204.916 C561.423,202.516 560.673,202.216 559.473,201.466 C555.273,198.916 553.923,196.966 553.923,193.366 C553.923,188.266 557.673,184.666 563.223,184.666 C568.773,184.666 572.223,188.116 572.223,193.816"/>
<polyline class="OttavaSegment" fill="none" stroke="#000000" stroke-dasharray="24.7104,-9.9216" stroke-dashoffset="0" stroke-width="4.12" stroke-linejoin="miter" stroke-miterlimit="2" points="709.253,216.992 709.253,177.493"/>
<polyline class="OttavaSegment" fill="none" stroke="#000000" stroke-dasharray="24.7104,-19.2006" stroke-dashoffset="0" stroke-width="4.12" stroke-linejoin="miter" stroke-miterlimit="2" points="681.234,182.375 711.302,179.345"/>
<polyline class="TextLineSegment" fill="none" stroke="#000000" stroke-width="7.91" stroke-linejoin="miter" stroke-miterlimit="2" points="361.002,527.896 517.634,310.336"/>
</svg>
