<?xml version="1.0" encoding="UTF-8" standalone="no"?>
<svg width="900px" height="684px" viewBox="0 0 900 684"
 xmlns="http://www.w3.org/2000/svg" xmlns:xlink="http://www.w3.org/1999/xlink" version="1.2" baseProfile="tiny">
<title>violin</title>
<desc>Generated by MuseScore 4.0.2</desc>
<path class="" fill="#ffffff" fill-rule="evenodd" d="M0,0 L900,0 L900,684 L0,684 L0,0 "/>
<polyline class="StaffLines" fill="none" stroke="#000000" stroke-width="4.12" stroke-linejoin="bevel" points="54,307.985 846,307.985"/>
<polyline class="StaffLines" fill="none" stroke="#000000" stroke-width="4.12" stroke-linejoin="bevel" points="54,345.425 846,345.425"/>
<polyline class="StaffLines" fill="none" stroke="#000000" stroke-width="4.12" stroke-linejoin="bevel" points="54,382.865 846,382.865"/>
<polyline class="StaffLines" fill="none" stroke="#000000" stroke-width="4.12" stroke-linejoin="bevel" points="54,420.305 846,420.305"/>
<polyline class="StaffLines" fill="none" stroke="#000000" stroke-width="4.12" stroke-linejoin="bevel" points="54,457.745 846,457.745"/>
<polyline class="BarLine" fill="none" stroke="#000000" stroke-width="6.74" stroke-linejoin="bevel" points="842.63,305.926 842.63,459.804"/>
<polyline class="LedgerLine" fill="none" stroke="#000000" stroke-width="5.99" stroke-linejoin="bevel" points="259.16,532.625 332.53,532.625"/>
<polyline class="LedgerLine" fill="none" stroke="#000000" stroke-width="5.99" stroke-linejoin="bevel" points="259.16,495.185 332.53,495.185"/>
<polyline class="LedgerLine" fill="none" stroke="#000000" stroke-width="5.99" stroke-linejoin="bevel" points="543.033,270.545 616.403,270.545"/>
<polyline class="LedgerLine" fill="none" stroke="#000000" stroke-width="5.99" stroke-linejoin="bevel" points="543.033,233.105 616.403,233.105"/>
<polyline class="LedgerLine" fill="none" stroke="#000000" stroke-width="5.99" stroke-linejoin="bevel" points="543.033,195.665 616.403,195.665"/>
<polyline class="Stem" fill="none" stroke="#000000" stroke-width="3.74" stroke-linejoin="bevel" points="318.303,545.355 318.303,382.865"/>
<polyline class="Stem" fill="none" stroke="#000000" stroke-width="3.74" stroke-linejoin="bevel" points="557.26,201.955 557.26,382.865"/>
<path class="Note" transform="matrix(1.4976,0,0,1.4976,271.515,551.345)" d="M0,4.2 C0,8.5 3.1,13.3 11.2,13.3 C21.6,13.3 32.5,4.8 32.5,-4 C32.5,-9.9 27.5,-13.2 21.3,-13.2 C11.6,-13.2 0,-5 0,4.2"/>
<path class="Note" transform="matrix(1.4976,0,0,1.4976,555.388,195.665)" d="M0,4.2 C0,8.5 3.1,13.3 11.2,13.3 C21.6,13.3 32.5,4.8 32.5,-4 C32.5,-9.9 27.5,-13.2 21.3,-13.2 C11.6,-13.2 0,-5 0,4.2"/>
<path class="Clef" transform="matrix(1.4976,0,0,1.4976,82.08,420.305)" d="M12.3,51.3 C12.3,57.9 17.3,66.6 30.8,66.6 C35.5,66.6 39.6,65.4 43.2,63.2 C48.6,59.4 50,52.8 50,46.5 C50,42.6 49.4,38.1 48.4,32.4 C48.1,30.4 47.5,27.4 46.9,23.5 C56.7,20.3 64,10.1 64,-0.2 C64,-15.3 53.3,-25.5 38.7,-25.5 C37.7,-31.5 36.7,-37.4 35.9,-43 C46.4,-54.1 53.7,-66.6 53.7,-82.5 C53.7,-91.6 50.9,-99 49.3,-102.6 C46.9,-107.7 44,-111.2 42.2,-111.2 C41.5,-111.2 38.4,-110 35.1,-106.1 C28.7,-98.5 26.9,-85.7 26.9,-77.3 C26.9,-71.9 27.4,-67 29.1,-55.8 C29,-55.7 23.8,-50.4 21.7,-48.7 C12.6,-40.3 0,-28.1 0,-8.1 C0,10.6 16.3,25.3 34.9,25.3 C37.8,25.3 40.5,25 42.8,24.6 C44.7,34.2 45.9,41.2 45.9,46.5 C45.9,56.9 40.5,62.4 30.4,62.4 C28,62.4 25.9,61.9 25.7,61.9 C25.6,61.8 25.4,61.7 25.4,61.6 C25.4,61.4 25.6,61.3 25.9,61.3 C30.6,60.5 35.3,56.5 35.3,50.1 C35.3,44.7 31.2,39 23.7,39 C16.7,39 12.3,44.7 12.3,51.3 M33.2,-82.2 C34.1,-86.2 38.7,-96.7 43.9,-96.7 C45.4,-96.7 47.8,-91.9 47.8,-84.9 C47.8,-74.5 40.1,-66.7 33.2,-59.9 C32.6,-63.9 32.1,-67.8 32.1,-72 C32.1,-75.7 32.4,-79.1 33.2,-82.2 M42,20.6 C40,21 38.1,21.2 36.2,21.2 C21.9,21.2 9.7,11.2 9.7,-3.9 C9.7,-16.1 18.3,-27 27.1,-34.6 C28.8,-36.1 30.4,-37.5 31.9,-39 C32.8,-33.6 33.5,-28.9 34.2,-24.8 C25.1,-22.1 18.9,-12.5 18.9,-3.1 C18.9,3.9 24.4,13.5 32.4,13.5 C33.2,13.5 34.1,13.1 34.1,12.2 C34.1,11.3 33.1,10.8 31.9,10 C28,7.6 25.8,5 25.8,0.1 C25.8,-6 30.4,-10.9 36.2,-12.3 L42,20.6 M56.2,2.1 C56.2,9.2 53.3,16.5 46.2,19.4 C44.1,7.4 41.4,-8.5 40.7,-12.9 C49.7,-12.9 56.2,-6.8 56.2,2.1"/>
<path class="OttavaSegment" d="M623.188,90 L605.188,90.9 L604.588,94.2 L606.238,94.2 C609.538,94.2 610.438,94.65 610.438,96.3 C610.438,97.05 610.138,98.25 609.388,100.8 L607.138,108.15 C606.838,109.5 606.388,111.9 606.388,113.4 C606.388,116.4 607.288,118.95 609.238,120.6 C611.338,122.4 614.038,123.3 616.888,123.3 C622.438,123.3 627.538,119.7 631.438,112.95 C634.288,107.7 636.388,100.95 636.388,96 C636.388,92.55 634.138,90 630.988,90 C628.138,90 626.338,91.8 626.338,94.35 C626.338,95.85 627.088,97.05 628.438,98.25 C631.138,100.8 631.288,101.1 631.288,102.45 C631.288,105.6 629.788,109.5 627.088,113.55 C624.988,116.85 622.588,118.5 620.338,118.5 C618.538,118.5 616.588,116.7 616.588,114.6 C616.588,113.25 616.738,112.95 618.238,106.8 L623.188,90 M668.488,90.9 L667.438,94.2 C665.788,91.5 662.938,90.15 658.888,90.15 C648.838,90.15 639.688,100.35 639.688,111.15 C639.688,118.35 644.488,123.3 651.388,123.3 C656.038,123.3 659.188,121.65 662.338,117.45 C662.338,119.1 662.488,119.1 662.638,119.55 C663.238,121.8 665.338,123.3 668.188,123.3 C671.638,123.3 674.638,121.65 677.938,117.75 C679.288,116.25 681.238,113.55 682.288,111.75 L679.738,110.1 C677.188,114 673.738,117.6 672.688,117.6 C672.238,117.6 671.788,117.15 671.788,116.55 C671.788,116.4 671.788,116.4 671.788,116.25 C671.788,115.8 671.938,115.35 672.388,113.55 L678.988,90.9 L668.488,90.9 M653.938,100.2 C656.038,95.85 658.438,93.9 661.288,93.9 C663.688,93.9 665.338,95.85 665.338,98.7 C665.338,102.15 663.838,107.55 661.888,112.05 C659.788,116.4 657.388,118.65 654.838,118.65 C652.138,118.65 650.638,116.55 650.638,113.25 C650.638,109.65 651.988,104.25 653.938,100.2 M597.388,131.55 C597.388,125.7 594.538,120.45 589.138,117 C597.388,113.85 601.288,109.5 601.288,103.35 C601.288,95.4 594.388,90.15 584.488,90.15 C572.188,90.15 563.488,97.65 563.488,108.15 C563.488,113.25 565.288,116.7 569.788,120.6 C566.338,121.95 563.788,123.15 561.538,124.8 C557.788,127.8 555.388,132.15 555.388,136.5 C555.388,144.6 562.888,150 573.988,150 C587.938,150 597.388,142.35 597.388,131.55 M565.438,136.05 C565.438,130.65 568.138,126.15 572.938,123.3 C574.138,124.05 574.288,124.05 575.338,124.5 C578.488,126.15 578.488,126.15 579.088,126.45 C584.338,129.6 586.588,132.45 586.588,136.5 C586.588,141.9 581.938,145.95 575.638,145.95 C569.488,145.95 565.438,142.05 565.438,136.05 M591.988,103.5 C591.988,108.3 590.188,111.3 585.838,114.6 C581.188,112.2 580.438,111.9 579.238,111.15 C575.038,108.6 573.688,106.65 573.688,103.05 C573.688,97.95 577.438,94.35 582.988,94.35 C588.538,94.35 591.988,97.8 591.988,103.5"/>
<polyline class="OttavaSegment" fill="none" stroke="#000000" stroke-dasharray="24.7104,-10.1015" stroke-dashoffset="0" stroke-width="4.12" stroke-linejoin="miter" stroke-miterlimit="2" points="731.841,132.323 731.841,93.0034"/>
<polyline class="OttavaSegment" fill="none" stroke="#000000" stroke-dasharray="24.7104,-16.5699" stroke-dashoffset="0" stroke-width="4.12" stroke-linejoin="miter" stroke-miterlimit="2" points="700.998,92.0592 733.712,95.0541"/>
<polyline class="TextLineSegment" fill="none" stroke="#000000" stroke-width="7.91" stroke-linejoin="miter" stroke-miterlimit="2" points="361.002,502.521 517.634,228.801"/>
</svg>
